<svg width="1328" height="317" viewBox="0 0 1328 317" fill="none" xmlns="http://www.w3.org/2000/svg">
<path d="M108.375 212.737C50.8298 212.737 4.01364 165.92 4.01364 108.375C4.01364 50.83 50.8298 4.01366 108.375 4.01366C165.92 4.01366 212.736 50.83 212.736 108.375C212.736 165.92 165.92 212.737 108.375 212.737ZM108.375 0C48.6167 0 0 48.6169 0 108.375C0 168.134 48.6167 216.75 108.375 216.75C168.133 216.75 216.75 168.134 216.75 108.375C216.75 48.6169 168.133 0 108.375 0Z" transform="translate(45 303) scale(1.33333 -1.33333)" fill="white"/>
<path d="M50.0232 0L48.0362 0.277077L56.8226 63.185L0 69.4945L0.22166 71.4877L59.0955 64.9522L50.0232 0Z" transform="translate(195.376 164.475) scale(1.33333 -1.33333)" fill="white"/>
<path d="M10.9309 30.3967L73.4683 2.59573L112.424 76.3396L52.4958 91.614L63.5401 145.293L2.13832 107.888L10.9309 30.3967ZM74.3663 0L9.06611 29.0289L0 108.934L66.4349 149.407L54.847 93.0856L115.389 77.6555L74.3663 0Z" transform="translate(108.873 266.953) scale(1.33333 -1.33333)" fill="white"/>
<path d="M1.15404 0L0 1.64223L69.1652 50.2196L70.3184 48.5782L1.15404 0Z" transform="translate(179.666 144.915) scale(1.33333 -1.33333)" fill="white"/>
<path d="M83.6594 0L31.285 15.9931L0.33865 10.6899L0 12.6673L31.4152 18.0505L84.2461 1.92019L83.6594 0Z" transform="translate(68.4984 145.1) scale(1.33333 -1.33333)" fill="white"/>
<path d="M42.3636 34.9671L59.143 2.15856L103.895 7.49692L84.3851 95.2363L42.3636 34.9671ZM57.9925 0L40.3942 34.4112L11.0355 59.2637L0 108.66L49.5562 169.205L96.5008 153.636L95.8692 151.732L50.2343 166.866L2.17175 108.145L12.8467 60.3597L41.0037 36.5249L85.3526 100.131L106.335 5.76672L57.9925 0Z" transform="translate(67.2766 274.065) scale(1.33333 -1.33333)" fill="white"/>
<path d="M24.614 12.3075C24.614 5.50988 19.1042 0 12.3066 0C5.50986 0 0 5.50988 0 12.3075C0 19.1043 5.50986 24.6141 12.3066 24.6141C19.1042 24.6141 24.614 19.1043 24.614 12.3075Z" transform="translate(93.8896 138.814) scale(1.33333 -1.33333)" fill="white"/>
<path d="M17.8595 8.9298C17.8595 3.99783 13.8617 0 8.92977 0C3.99781 0 0 3.99783 0 8.9298C0 13.8609 3.99781 17.8587 8.92977 17.8587C13.8617 17.8587 17.8595 13.8609 17.8595 8.9298Z" transform="translate(260.748 90.9557) scale(1.33333 -1.33333)" fill="white"/>
<path d="M17.8595 8.92892C17.8595 3.99783 13.8617 0 8.92977 0C3.99781 0 0 3.99783 0 8.92892C0 13.86 3.99781 17.8587 8.92977 17.8587C13.8617 17.8587 17.8595 13.86 17.8595 8.92892Z" transform="translate(195.523 277.128) scale(1.33333 -1.33333)" fill="white"/>
<path d="M40.3722 20.1862C40.3722 9.03799 31.3342 0 20.1861 0C9.03708 0 0 9.03799 0 20.1862C0 31.3352 9.03708 40.3723 20.1861 40.3723C31.3342 40.3723 40.3722 31.3352 40.3722 20.1862Z" transform="translate(168.609 97.4016) scale(1.33333 -1.33333)" fill="white"/>
<path d="M14.0157 7.00785C14.0157 3.13845 10.8781 0 7.00783 0C3.13756 0 0 3.13845 0 7.00785C0 10.8781 3.13756 14.0166 7.00783 14.0166C10.8781 14.0166 14.0157 10.8781 14.0157 7.00785Z" transform="translate(73.8547 203.66) scale(1.33333 -1.33333)" fill="white"/>
<path d="M13.597 6.79851C13.597 3.04257 10.5535 0 6.79848 0C3.04344 0 0 3.04257 0 6.79851C0 10.5536 3.04344 13.597 6.79848 13.597C10.5535 13.597 13.597 10.5536 13.597 6.79851Z" transform="translate(171.371 152.885) scale(1.33333 -1.33333)" fill="white"/>
<path d="M67.9734 33.9864C67.9734 15.2164 52.757 0 33.9862 0C15.2163 0 0 15.2164 0 33.9864C0 52.7573 15.2163 67.9736 33.9862 67.9736C52.757 67.9736 67.9734 52.7573 67.9734 33.9864Z" transform="translate(215.433 209.605) scale(1.33333 -1.33333)" fill="white"/>
<path d="M108.027 23.6323V0H61.7423C52.9263 0 46.1844 0.456197 41.5167 1.36526C25.2496 4.54198 13.6769 13.6492 6.80846 28.6904C2.26726 38.74 0 51.1872 0 66.0318C0 83.8634 3.46915 98.3851 10.4041 109.6C15.3948 117.639 22.0901 123.509 30.4833 127.205C38.8732 130.898 49.7501 132.75 63.104 132.75H108.027V109.117H66.3135C53.672 109.117 44.4032 105.744 38.5036 99.0011C33.6428 93.4269 31.2124 83.3107 31.2124 68.6591C31.2124 49.0827 35.0012 36.2093 42.5887 30.0523C47.9023 25.7734 56.169 23.6323 67.3822 23.6323H108.027Z" transform="translate(408 247) scale(1.33333 -1.33333)" fill="white"/>
<path d="M71.2709 100.849L52.3137 54.3639H90.1348L71.2709 100.849ZM0 0L54.9372 132.746H87.508L142.445 0H109.288L96.4539 30.7316H45.9913L33.1567 0H0Z" transform="translate(564.738 246.998) scale(1.33333 -1.33333)" fill="white"/>
<path d="M28.1994 109.117V23.6323H56.2989C68.6174 23.6323 77.1704 26.3894 81.968 31.9004C84.8845 35.2703 87.235 40.0853 89.0195 46.3388C90.8007 52.5957 91.6929 59.2588 91.6929 66.3249C91.6929 74.1035 90.6375 81.2694 88.5334 87.8193C86.4226 94.3659 83.6193 99.2276 80.1235 102.404C75.0663 106.88 67.1225 109.117 56.2989 109.117H28.1994ZM0 132.75H56.2989C70.3653 132.75 81.2555 131.354 88.9695 128.567C103.166 123.446 112.628 113.979 117.362 100.167C120.991 89.6008 122.805 78.2525 122.805 66.1317C122.805 54.1374 121.088 42.8258 117.652 32.1901C114.219 21.3013 108.479 13.2929 100.442 8.17157C95.3885 4.92825 89.8618 2.76049 83.8657 1.65829C77.8696 0.552766 68.6806 0 56.2989 0H0V132.75Z" transform="translate(773.721 247) scale(1.33333 -1.33333)" fill="white"/>
<path d="M106.761 132.746V109.114H69.9092C60.2508 109.114 53.2326 108.448 48.8578 107.123C44.4831 105.791 40.8342 103.213 37.9177 99.3874C35.9734 96.7934 34.645 94.1695 33.9325 91.5122C33.22 88.8516 32.6041 84.3163 32.0847 77.8963H106.761V54.2673H32.0847C33.0569 42.7892 36.3929 34.8174 42.0993 30.342C47.8058 25.8666 57.4941 23.6289 71.1743 23.6289H106.761V0H69.9092C59.9278 0 51.1451 0.616032 43.5609 1.84809C31.6319 3.79275 22.1334 9.0107 15.0685 17.5053C5.02063 29.6927 0 46.2256 0 67.1007C0 90.2468 7.09479 108.238 21.291 121.075C26.1552 125.421 31.3389 128.451 36.849 130.169C42.359 131.884 49.7501 132.746 59.0189 132.746H106.761Z" transform="translate(954.448 246.998) scale(1.33333 -1.33333)" fill="white"/>
<path d="M6.31906 0V23.6323H66.8961C76.6177 23.6323 83.0999 24.6046 86.3427 26.5526C91.0071 29.3397 93.3443 33.5187 93.3443 39.093C93.3443 45.513 90.6209 50.2148 85.1774 53.1984C82.0645 54.88 77.1071 55.7225 70.2987 55.7225H45.6983C30.6597 55.7225 19.8361 58.4497 13.2241 63.8907C9.07241 67.3305 5.83298 71.6594 3.49912 76.8773C1.16526 82.0952 0 87.6528 0 93.5567C0 102.89 2.72339 111.415 8.17016 119.13C13.4804 126.586 22.0068 130.928 33.7394 132.16C37.6946 132.553 43.5908 132.746 51.4381 132.746H117.262V109.117H57.8537C48.9744 109.051 43.0748 108.661 40.1583 107.949C34.1922 106.457 31.2124 101.948 31.2124 94.4292C31.2124 88.0757 33.7094 83.7968 38.7001 81.5924C42.0693 80.104 47.6426 79.3547 55.4233 79.3547H76.7176C87.6078 79.3547 95.7414 78.4157 101.122 76.5343C110.52 73.3576 116.969 67.7834 120.472 59.8083C123.325 53.3915 124.75 46.5186 124.75 39.1929C124.75 31.1512 122.902 23.9253 119.206 17.5053C114.023 8.42797 106.209 3.01356 95.7747 1.26536C90.7208 0.422897 83.1332 0 73.0221 0H6.31906Z" transform="translate(1117.67 246.999) scale(1.33333 -1.33333)" fill="white"/>
</svg>
